<?xml version="1.0" encoding="UTF-8"?>
<svg version="1.1" xmlns="http://www.w3.org/2000/svg" width="64" height="64">
<path d="M0 0 C3.96 0 7.92 0 12 0 C12 4.29 12 8.58 12 13 C16.29 13 20.58 13 25 13 C25 17.29 25 21.58 25 26 C29.29 26 33.58 26 38 26 C38 29.96 38 33.92 38 38 C33.71 38 29.42 38 25 38 C25 42.29 25 46.58 25 51 C20.71 51 16.42 51 12 51 C12 55.29 12 59.58 12 64 C8.04 64 4.08 64 0 64 C0 59.71 0 55.42 0 51 C-4.29 51 -8.58 51 -13 51 C-13 46.71 -13 42.42 -13 38 C-17.29 38 -21.58 38 -26 38 C-26 34.04 -26 30.08 -26 26 C-21.71 26 -17.42 26 -13 26 C-13 21.71 -13 17.42 -13 13 C-8.71 13 -4.42 13 0 13 C0 8.71 0 4.42 0 0 Z M0 26 C0 29.96 0 33.92 0 38 C3.96 38 7.92 38 12 38 C12 34.04 12 30.08 12 26 C8.04 26 4.08 26 0 26 Z " fill="#1823FF" transform="translate(26,0)"/>
<path d="M0 0 C4.29 0 8.58 0 13 0 C13 4.29 13 8.58 13 13 C8.71 13 4.42 13 0 13 C0 8.71 0 4.42 0 0 Z " fill="#020CFF" transform="translate(51,51)"/>
<path d="M0 0 C4.29 0 8.58 0 13 0 C13 4.29 13 8.58 13 13 C8.71 13 4.42 13 0 13 C0 8.71 0 4.42 0 0 Z " fill="#1823FF" transform="translate(0,51)"/>
<path d="M0 0 C4.29 0 8.58 0 13 0 C13 4.29 13 8.58 13 13 C8.71 13 4.42 13 0 13 C0 8.71 0 4.42 0 0 Z " fill="#1924FF" transform="translate(51,0)"/>
<path d="M0 0 C4.29 0 8.58 0 13 0 C13 4.29 13 8.58 13 13 C8.71 13 4.42 13 0 13 C0 8.71 0 4.42 0 0 Z " fill="#2C38FF" transform="translate(0,0)"/>
</svg>
